<?xml version="1.0" encoding="utf-8"?>
<!-- Generator: Adobe Illustrator 23.0.2, SVG Export Plug-In . SVG Version: 6.00 Build 0)  -->
<svg version="1.1" id="Слой_1" xmlns="http://www.w3.org/2000/svg" xmlns:xlink="http://www.w3.org/1999/xlink" x="0px" y="0px"
	 viewBox="0 0 1000 1000" style="enable-background:new 0 0 1000 1000;" xml:space="preserve">
<style type="text/css">
	.st0{fill:#FFFFFF;}
</style>
<g>
	<path class="st0" d="M483.8,667c-19.2,17.5-37,33.9-54.9,50.1c-22.2,20.1-45.4,15-55-13.6c-12.9-38.5-24.8-77.3-36-116.3
		c-3.3-11.4-9-16.8-19.9-20.1c-27.5-8.5-54.8-17.8-81.8-27.6c-8.9-3.3-18.1-8-25-14.4c-16.5-15.3-14.8-36.9,3.1-50.6
		c6-4.6,13.2-7.9,20.3-10.7c144.9-57.1,289.8-114,434.8-170.9c4.8-1.9,9.7-3.5,14.6-4.8c33-8.5,52.2,9.7,45.6,43.3
		c-25,126.6-50,253.2-74.9,379.7c-7.4,37.5-44.9,52.2-75.5,29.2C547.7,716.4,516.5,692.1,483.8,667z M440.6,586.9
		c1.9,2.4,2.7,3.8,3.8,4.7c51.3,39.7,102.5,79.5,154,119c12.7,9.8,19.3,6.4,22.6-10.3c20.3-102.4,40.7-204.8,61-307.1
		c4.6-23.4,9-46.8,14-73.2c-154.8,60.8-306.3,120.3-461.6,181.4c8.4,3.3,13,5.3,17.7,6.9c24.8,8.4,50.1,15.8,74.4,25.4
		c13.6,5.4,23.4,3,35.3-4.7c78.2-50.5,157-100.3,235.6-150.2c6-3.8,12.5-7.2,19.1-9.7c10.2-3.8,21.3-2.2,25.2,8
		c3,7.9,1.5,18.6-1.1,27.1c-1.7,5.6-8.7,9.8-13.6,14.3C565.4,474.4,503.5,530.2,440.6,586.9z M420.7,677
		c13.4-12.3,23.4-21.5,34.7-31.9c-9.8-7.2-18.5-13.6-28.6-21C424.7,642.2,423,657.4,420.7,677z"/>
	<path class="st0" d="M501.5,962C248.1,962,42,755.9,42,502.5S248.1,43,501.5,43S961,249.1,961,502.5S754.9,962,501.5,962z
		 M501.5,84.2c-230.6,0-418.3,187.6-418.3,418.3s187.6,418.3,418.3,418.3s418.3-187.6,418.3-418.3S732.1,84.2,501.5,84.2z"/>
</g>
</svg>
